<svg id="Layer_1" enable-background="new 0 0 510 510" height="512" viewBox="0 0 510 510" width="512" xmlns="http://www.w3.org/2000/svg"><g><path d="m180 135h30v120h-30z"/><path d="m240 180h30v75h-30z"/><path d="m300 135h30v75h-30z"/><path d="m450 0c-44.516 0-81.58 32.489-88.743 75h-212.514c-7.162-42.511-44.227-75-88.743-75h-60v510h510c0-7.518 0-501.604 0-510zm0 30h30v30h-81.928c10.391-17.916 29.769-30 51.928-30zm-120 320.103v-95.103h-30v100.45c-10.993 3.203-41.871 16.75-82.513 2.405-2.476-.874-4.974-1.669-7.487-2.402v-55.453h-30v50.103c-10.001-.698-20.062-.348-30 1.051v-246.154h210v246.155c-9.938-1.399-20-1.75-30-1.052zm-270-320.103c22.159 0 41.537 12.084 51.928 30h-81.928v-30zm-30 318.967v-258.967h90v268.737c-23.074 8.103-32.491 8.305-55.532.984zm450 131.033h-450v-99.606c42.564 13.288 57.362 20.479 94.049 8.636 6.173-1.994 8.811-3.124 13.747-4.595 22.738-6.767 47.276-6.206 69.706 1.71 52.321 18.468 94.669.029 95.112-.045 23.968-8.427 49.251-8.773 77.03.801 28.961 10.221 45.1 10.902 74.824 1.462l25.532-7.968zm-90-121.26v-268.74h90v258.968c-54.347 16.967-58.504 20.844-90 9.772z"/><path d="m90 420h90v30h-90z"/><path d="m330 420h105v30h-105z"/><path d="m225 420h60v30h-60z"/></g></svg>