<svg id="Layer_1" enable-background="new 0 0 510.11 510.11" height="512" viewBox="0 0 510.11 510.11" width="512" xmlns="http://www.w3.org/2000/svg"><g><path d="m456.924 272.326c-7.184-60.388-28.094-117.532-36.964-145.148l-72.445 46.497-92.425-169.45-92.425 169.45-72.445-46.497c-12.502 43.304-68.878 180.566-19.702 278.389 64.785 136.449 299.575 142.303 369.145 0l-.001.001c17.767-35.342 23.574-80.171 17.262-133.242zm-134.223 170.42v.001c-11.277 22.435-36.799 38.079-67.162 37.17-.101 0-1.001 0-.9 0-28.297.843-55.051-13.076-67.162-37.171-12.201-24.27-6.348-58.767 1.896-87.669l30.008 19.259 35.707-65.465 35.708 65.465 30.008-19.259c8.246 28.901 14.099 63.399 1.897 87.669zm90.158-50.653-.001.001c-13.999 27.85-36.58 50.401-64.178 65.692 26.298-49.852-.969-114.003-11.276-149.009l-35.696 22.91-46.618-85.467-46.617 85.467-35.697-22.91c-8.346 28.344-38.443 97.501-11.274 149.014-103.166-57.155-90.182-171.889-54.88-284.437l66.952 42.972 81.516-149.45 81.515 149.45 66.953-42.972c21.175 67.511 40.736 156.206 9.301 218.739z"/><path d="m345.09 0h30v75h-30z"/><path d="m405.09 30h30v60h-30z"/><path d="m75.09 30h30v60h-30z"/><path d="m135.09 0h30v75h-30z"/></g></svg>