<svg id="Capa_1" enable-background="new 0 0 512 512" height="512" viewBox="0 0 512 512" width="512" xmlns="http://www.w3.org/2000/svg"><g><path d="m40.032 0v512h431.936v-512zm401.936 421.952h-311.888v-391.952h311.888zm-341.888-391.952v391.952h-30.048v-391.952zm-30.048 452v-30.048h371.936v30.048z"/><path d="m221.397 209.366-20.873 20.873 21.213 21.213 20.873-20.873c8.447 5.693 18.069 9.764 28.414 11.791v29.498h30v-29.498c10.346-2.027 19.967-6.098 28.414-11.791l20.873 20.873 21.213-21.213-20.874-20.874c5.693-8.447 9.763-18.068 11.791-28.414h29.498v-30h-29.498c-2.027-10.346-6.098-19.967-11.791-28.414l20.873-20.873-21.213-21.213-20.873 20.873c-8.447-5.693-18.069-9.764-28.414-11.791v-29.497h-30v29.498c-10.345 2.027-19.967 6.098-28.414 11.791l-20.874-20.874-21.213 21.213 20.873 20.873c-5.693 8.447-9.764 18.069-11.791 28.414h-29.498v30h29.498c2.029 10.347 6.1 19.968 11.793 28.415zm64.627-91.296c26.402 0 47.882 21.479 47.882 47.882s-21.479 47.882-47.882 47.882-47.882-21.479-47.882-47.882 21.48-47.882 47.882-47.882z"/><path d="m160.116 361.904h251.816v30h-251.816z"/><path d="m160.116 301.856h251.816v30h-251.816z"/></g></svg>