<svg id="Capa_1" enable-background="new 0 0 512 512" height="512" viewBox="0 0 512 512" width="512" xmlns="http://www.w3.org/2000/svg"><g><path d="m216 416h80c33.084 0 60-26.916 60-60v-31.716l5.858 5.858c7.811 7.811 20.474 7.811 28.284 0 7.811-7.811 7.811-20.474 0-28.284l-91.716-91.716c-11.333-11.333-26.4-17.574-42.426-17.574s-31.094 6.241-42.426 17.574l-91.716 91.716c-7.811 7.811-7.811 20.474 0 28.284s20.474 7.811 28.284 0l5.858-5.858v31.716c0 33.084 26.916 60 60 60zm25.858-177.574c3.778-3.777 8.8-5.858 14.142-5.858s10.364 2.081 14.142 5.858l45.858 45.858v71.716c0 11.028-8.972 20-20 20h-20v-20c0-11.046-8.954-20-20-20s-20 8.954-20 20v20h-20c-11.028 0-20-8.972-20-20v-71.716z"/><path d="m432 56v-20c0-11.046-8.954-20-20-20s-20 8.954-20 20v80c0 11.028-8.972 20-20 20-11.046 0-20 8.954-20 20s8.954 20 20 20c33.084 0 60-26.916 60-60v-20c22.056 0 40 17.944 40 40v280c0 22.056-17.944 40-40 40h-352c-22.056 0-40-17.944-40-40v-280c0-22.056 17.944-40 40-40v20c0 33.084 26.916 60 60 60 11.046 0 20-8.954 20-20s-8.954-20-20-20c-11.028 0-20-8.972-20-20v-20h212c11.046 0 20-8.954 20-20s-8.954-20-20-20h-212v-20c0-11.046-8.954-20-20-20s-20 8.954-20 20v20c-44.112 0-80 35.888-80 80v280c0 44.112 35.888 80 80 80h352c44.112 0 80-35.888 80-80v-280c0-44.112-35.888-80-80-80z"/></g></svg>