<svg id="Capa_1" enable-background="new 0 0 511.981 511.981" height="512" viewBox="0 0 511.981 511.981" width="512" xmlns="http://www.w3.org/2000/svg"><path d="m511.981 240.928c0-36.358-25.919-66.772-60.25-73.745v-137.067h-86.961c-13.584 70.742-71.468 120.057-142.622 120.5h-161.917v30.038c-34.02 1.99-59.91 25.321-60.231 61.023 1.398 34.117 25.751 57.688 60.231 59.6v29.964h26.417v150.625h90.25v-60.25h60.25v-89.599c66.11 7.075 115.137 55.704 127.622 119.724h86.961v-137.068c34.331-6.972 60.25-37.387 60.25-73.745zm-421.75-60.312h116.917v120.625h-116.917zm-60.228 60.28c.861-18.225 11.849-28.031 30.228-30.142v60.42c-18.329-1.918-29.228-12.3-30.228-30.278zm116.895 210.97h-30.25v-120.625h45.411c-9.514 12.602-15.161 28.279-15.161 45.25zm30-60.25v-15.125c0-19.694 12.651-36.481 30.25-42.684v57.809zm60.25-89.73v-121.916c50.233-4.296 95.117-29.98 124.333-68.992v259.9c-29.216-39.012-74.1-64.696-124.333-68.992zm184.583 119.855h-30.25v-361.625h30.25zm30-138.129v-85.368c17.599 6.203 30.25 22.989 30.25 42.684s-12.651 36.481-30.25 42.684z"/></svg>