<svg id="Capa_1" enable-background="new 0 0 512 512" height="512" viewBox="0 0 512 512" width="512" xmlns="http://www.w3.org/2000/svg"><g><path d="m376 160h76c11.028 0 20 8.972 20 20 0 11.046 8.954 20 20 20s20-8.954 20-20c0-99.252-80.748-180-180-180h-152c-99.252 0-180 80.748-180 180 0 11.046 8.954 20 20 20s20-8.954 20-20c0-11.028 8.972-20 20-20h76c11.028 0 20 8.972 20 20 0 11.046 8.954 20 20 20s20-8.954 20-20c0-11.028 8.972-20 20-20h80c11.028 0 20 8.972 20 20 0 11.046 8.954 20 20 20s20-8.954 20-20c0-11.028 8.972-20 20-20zm-40-24.685c-10.623-9.519-24.647-15.315-40-15.315h-80c-15.353 0-29.377 5.796-40 15.315-10.623-9.519-24.647-15.315-40-15.315h-76c-2.249 0-4.469.125-6.655.367 22.434-47.455 70.774-80.367 126.655-80.367h152c55.881 0 104.221 32.912 126.655 80.367-2.186-.242-4.406-.367-6.655-.367h-76c-15.353 0-29.377 5.796-40 15.315z"/><path d="m296 472h-20v-252c0-11.046-8.954-20-20-20s-20 8.954-20 20v252h-20c-11.046 0-20 8.954-20 20s8.954 20 20 20h80c11.046 0 20-8.954 20-20s-8.954-20-20-20z"/><path d="m96 352h-56v-92c0-11.046-8.954-20-20-20s-20 8.954-20 20v232c0 11.046 8.954 20 20 20s20-8.954 20-20v-100h56c11.028 0 20 8.972 20 20v80c0 11.046 8.954 20 20 20s20-8.954 20-20v-80c0-33.084-26.916-60-60-60z"/><path d="m492 240c-11.046 0-20 8.954-20 20v92h-56c-33.084 0-60 26.916-60 60v80c0 11.046 8.954 20 20 20s20-8.954 20-20v-80c0-11.028 8.972-20 20-20h56v100c0 11.046 8.954 20 20 20s20-8.954 20-20v-232c0-11.046-8.954-20-20-20z"/></g></svg>