<svg id="Сгруппировать_11424" data-name="Сгруппировать 11424" xmlns="http://www.w3.org/2000/svg" width="148.763" height="37.35" viewBox="0 0 148.763 37.35">
  <rect id="Прямоугольник_13800" data-name="Прямоугольник 13800" width="148.763" height="37.35" rx="9" fill="#e4e4e4"/>
  <g id="Сгруппировать_11327" data-name="Сгруппировать 11327" transform="translate(33.57 9.186)">
    <g id="Сгруппировать_11324" data-name="Сгруппировать 11324" transform="translate(26.414 0.365)">
      <path id="Контур_15625" data-name="Контур 15625" d="M1237.215,1950.5a2.267,2.267,0,0,1,0,4.526h-1.521V1950.5Zm-.957,4.018h.919c1.026,0,1.6-.627,1.6-1.75s-.568-1.759-1.6-1.759h-.919Z" transform="translate(-1235.694 -1950.503)" fill="#333"/>
      <path id="Контур_15626" data-name="Контур 15626" d="M1303.94,1970.78a1.519,1.519,0,1,1,1.512,1.688A1.5,1.5,0,0,1,1303.94,1970.78Zm2.465,0c0-.769-.376-1.208-.953-1.208s-.957.439-.957,1.208.38,1.208.957,1.208S1306.405,1971.549,1306.405,1970.78Z" transform="translate(-1299.507 -1967.885)" fill="#333"/>
      <path id="Контур_15627" data-name="Контур 15627" d="M1363.235,1973.224h-.555l-.737-2.525h-.013l-.734,2.525h-.555l-.913-3.262h.542l.652,2.654h.013l.737-2.654h.527l.74,2.654h.013l.652-2.654h.54Z" transform="translate(-1351.673 -1968.698)" fill="#333"/>
      <path id="Контур_15628" data-name="Контур 15628" d="M1439.516,1969.149h.514v.521h.013a1.091,1.091,0,0,1,1.035-.577,1.074,1.074,0,0,1,1.129,1.2v2.117h-.546v-2.02c0-.527-.248-.815-.75-.815a.832.832,0,0,0-.85.916v1.919h-.546Z" transform="translate(-1426.277 -1967.885)" fill="#333"/>
      <path id="Контур_15629" data-name="Контур 15629" d="M1497,1950.5h.546v4.526H1497Z" transform="translate(-1480.023 -1950.503)" fill="#333"/>
      <path id="Контур_15630" data-name="Контур 15630" d="M1519.226,1970.78a1.52,1.52,0,1,1,1.512,1.688A1.5,1.5,0,0,1,1519.226,1970.78Zm2.465,0c0-.769-.376-1.208-.953-1.208s-.957.439-.957,1.208.38,1.208.957,1.208S1521.691,1971.549,1521.691,1970.78Z" transform="translate(-1500.81 -1967.885)" fill="#333"/>
      <path id="Контур_15631" data-name="Контур 15631" d="M1577.091,1971.489c0-.558.43-.909,1.182-.953l.935-.053v-.273c0-.4-.264-.636-.715-.636a.684.684,0,0,0-.753.518h-.527a1.152,1.152,0,0,1,1.292-1c.765,0,1.248.414,1.248,1.063v2.255h-.517v-.561h-.013a1.19,1.19,0,0,1-1.048.618A.98.98,0,0,1,1577.091,1971.489Zm2.117-.317v-.266l-.872.053c-.439.028-.69.223-.69.53s.26.515.652.515A.858.858,0,0,0,1579.208,1971.172Z" transform="translate(-1554.916 -1967.885)" fill="#333"/>
      <path id="Контур_15632" data-name="Контур 15632" d="M1631.238,1953.4c0-1.023.561-1.687,1.383-1.687a1.146,1.146,0,0,1,1.038.586h.013V1950.5h.546v4.526h-.521v-.552h-.01a1.167,1.167,0,0,1-1.054.608C1631.8,1955.085,1631.238,1954.42,1631.238,1953.4Zm.558,0c0,.74.364,1.208.941,1.208.561,0,.938-.477.938-1.208s-.377-1.208-.938-1.208C1632.16,1952.19,1631.8,1952.661,1631.8,1953.4Z" transform="translate(-1605.546 -1950.503)" fill="#333"/>
      <path id="Контур_15633" data-name="Контур 15633" d="M1716.162,1970.78a1.52,1.52,0,1,1,1.512,1.688A1.5,1.5,0,0,1,1716.162,1970.78Zm2.465,0c0-.769-.376-1.208-.953-1.208s-.957.439-.957,1.208.379,1.208.957,1.208S1718.627,1971.549,1718.627,1970.78Z" transform="translate(-1684.954 -1967.885)" fill="#333"/>
      <path id="Контур_15634" data-name="Контур 15634" d="M1776.056,1969.149h.514v.521h.013a1.091,1.091,0,0,1,1.035-.577,1.074,1.074,0,0,1,1.129,1.2v2.117h-.546v-2.02c0-.527-.248-.815-.75-.815a.832.832,0,0,0-.85.916v1.919h-.546Z" transform="translate(-1740.958 -1967.885)" fill="#333"/>
      <path id="Контур_15635" data-name="Контур 15635" d="M1854.575,1957.842v.787h.633v.448h-.633v1.938c0,.3.125.433.4.433a2.18,2.18,0,0,0,.226-.016v.458a1.928,1.928,0,0,1-.345.025c-.6,0-.831-.245-.831-.872v-1.967h-.486v-.448h.486v-.787Z" transform="translate(-1813.411 -1957.365)" fill="#333"/>
      <path id="Контур_15636" data-name="Контур 15636" d="M1893.5,1950.5h.546v1.784h.013a1.079,1.079,0,0,1,1.035-.577,1.1,1.1,0,0,1,1.148,1.211v2.108h-.546v-2.007a.724.724,0,0,0-.771-.828.848.848,0,0,0-.878.935v1.9h-.546Z" transform="translate(-1850.769 -1950.503)" fill="#333"/>
      <path id="Контур_15637" data-name="Контур 15637" d="M1951.71,1971.477a1.292,1.292,0,0,1-1.358.991,1.48,1.48,0,0,1-1.5-1.675,1.507,1.507,0,0,1,1.477-1.7,1.431,1.431,0,0,1,1.424,1.628v.207h-2.34v.031a.932.932,0,0,0,.953,1.035.788.788,0,0,0,.809-.517Zm-2.3-.975h1.772a.872.872,0,0,0-.869-.935A.916.916,0,0,0,1949.415,1970.5Z" transform="translate(-1902.528 -1967.885)" fill="#333"/>
    </g>
    <g id="Сгруппировать_11325" data-name="Сгруппировать 11325" transform="translate(26.16 8.377)">
      <path id="Контур_15638" data-name="Контур 15638" d="M1234.855,2076.01h1.412l3.057,8.419h-1.371l-.77-2.275h-3.244l-.776,2.275h-1.371Zm-.566,5.093h2.538l-1.254-3.7h-.023Z" transform="translate(-1231.792 -2075.87)" fill="#333"/>
      <path id="Контур_15639" data-name="Контур 15639" d="M1368.9,2109.45h1.26v1.056h.029a2.067,2.067,0,0,1,1.919-1.173c1.564,0,2.567,1.225,2.567,3.185v.006c0,1.954-1.009,3.185-2.549,3.185a2.108,2.108,0,0,1-1.937-1.155h-.029v3.075h-1.26Zm4.492,3.075v-.006c0-1.307-.624-2.106-1.61-2.106-.957,0-1.628.828-1.628,2.106v.006c0,1.272.677,2.1,1.628,2.1C1372.773,2114.624,1373.391,2113.819,1373.391,2112.524Z" transform="translate(-1359.993 -2107.029)" fill="#333"/>
      <path id="Контур_15640" data-name="Контур 15640" d="M1482.023,2109.45h1.26v1.056h.029a2.067,2.067,0,0,1,1.919-1.173c1.564,0,2.567,1.225,2.567,3.185v.006c0,1.954-1.009,3.185-2.549,3.185a2.108,2.108,0,0,1-1.937-1.155h-.029v3.075h-1.26Zm4.492,3.075v-.006c0-1.307-.624-2.106-1.61-2.106-.957,0-1.628.828-1.628,2.106v.006c0,1.272.677,2.1,1.628,2.1C1485.9,2114.624,1486.515,2113.819,1486.515,2112.524Z" transform="translate(-1465.77 -2107.029)" fill="#333"/>
      <path id="Контур_15641" data-name="Контур 15641" d="M1638.124,2080.172l-.006-.087h1.272l.012.076c.117.776.893,1.26,2.019,1.26s1.838-.507,1.838-1.295v-.006c0-.677-.461-1.044-1.575-1.289l-.916-.193c-1.651-.35-2.45-1.108-2.45-2.357v-.006c.006-1.435,1.272-2.421,3.051-2.421,1.756,0,2.958.957,3.046,2.369l.006.1h-1.272l-.006-.082c-.117-.781-.793-1.254-1.791-1.254-1.044.006-1.709.5-1.709,1.237v.006c0,.63.479,1.015,1.529,1.243l.922.193c1.739.368,2.485,1.073,2.485,2.374v.006c0,1.535-1.214,2.509-3.209,2.509C1639.477,2082.552,1638.229,2081.654,1638.124,2080.172Z" transform="translate(-1611.726 -2073.854)" fill="#333"/>
      <path id="Контур_15642" data-name="Контур 15642" d="M1755.268,2092.639v-3.518h-.881v-1h.881v-1.6h1.289v1.6h1.149v1h-1.149v3.442c0,.624.28.811.811.811a2.623,2.623,0,0,0,.338-.023v.974a4.234,4.234,0,0,1-.642.052C1755.851,2094.377,1755.268,2093.864,1755.268,2092.639Z" transform="translate(-1720.443 -2085.696)" fill="#333"/>
      <path id="Контур_15643" data-name="Контур 15643" d="M1824.215,2112.518v-.012a2.922,2.922,0,1,1,5.822,0v.012c0,1.978-1.155,3.191-2.911,3.191S1824.215,2114.49,1824.215,2112.518Zm4.533,0v-.012c0-1.342-.642-2.118-1.628-2.118-.969,0-1.616.776-1.616,2.118v.012c0,1.359.642,2.136,1.628,2.136S1828.748,2113.872,1828.748,2112.518Z" transform="translate(-1785.735 -2107.029)" fill="#333"/>
      <path id="Контур_15644" data-name="Контур 15644" d="M1938.057,2109.45h1.26v1.05h.029a1.444,1.444,0,0,1,1.412-1.167,2.45,2.45,0,0,1,.438.047v1.173a1.8,1.8,0,0,0-.566-.07,1.273,1.273,0,0,0-1.313,1.447v3.658h-1.26Z" transform="translate(-1892.183 -2107.029)" fill="#333"/>
      <path id="Контур_15645" data-name="Контур 15645" d="M1999.354,2112.542v-.006c0-1.92,1.108-3.2,2.829-3.2s2.777,1.237,2.777,3.08v.426h-4.346c.023,1.161.659,1.838,1.663,1.838a1.391,1.391,0,0,0,1.4-.846l.017-.047h1.2l-.012.064a2.514,2.514,0,0,1-2.631,1.861C2000.445,2115.709,1999.354,2114.479,1999.354,2112.542Zm1.278-.595h3.081c-.105-1.062-.7-1.581-1.523-1.581A1.565,1.565,0,0,0,2000.632,2111.947Z" transform="translate(-1949.498 -2107.029)" fill="#333"/>
    </g>
    <g id="Сгруппировать_11326" data-name="Сгруппировать 11326">
      <path id="Контур_15646" data-name="Контур 15646" d="M843.968,1951.734a4.843,4.843,0,0,0-1.6,1.646,3.863,3.863,0,0,0-.424,1.789,3.739,3.739,0,0,0,.251,1.394,4.59,4.59,0,0,0,.711,1.2,4.865,4.865,0,0,0,1.538,1.129,10.285,10.285,0,0,1-1.293,2.493,7.8,7.8,0,0,1-1.588,1.8,2.3,2.3,0,0,1-1.358.532,4.226,4.226,0,0,1-1.394-.331l-.273-.1-.445-.187a3.612,3.612,0,0,0-1.049-.144,4.015,4.015,0,0,0-1.322.259l-.345.129-.431.172a2.829,2.829,0,0,1-1.035.2,3.336,3.336,0,0,1-2.343-1.531,11.251,11.251,0,0,1-1.89-3.291,10.346,10.346,0,0,1-.64-3.557,5.719,5.719,0,0,1,1.315-3.852,4.456,4.456,0,0,1,3.571-1.538,3.931,3.931,0,0,1,1.538.3l.331.13.345.144a2.091,2.091,0,0,0,.733.187,2.181,2.181,0,0,0,.8-.158l.46-.172.331-.13a5.041,5.041,0,0,1,1.782-.3A4.512,4.512,0,0,1,843.968,1951.734Zm-3.65-6.849q.029.316.029.489a3.835,3.835,0,0,1-.517,1.84,3.905,3.905,0,0,1-1.351,1.473,3.382,3.382,0,0,1-1.84.525,4.554,4.554,0,0,1-.043-.5,3.388,3.388,0,0,1,.453-1.6,4.4,4.4,0,0,1,1.229-1.43,3.881,3.881,0,0,1,1.753-.747Z" transform="translate(-829.036 -1944.885)" fill="#333"/>
    </g>
  </g>
</svg>
