<svg xmlns="http://www.w3.org/2000/svg" xmlns:xlink="http://www.w3.org/1999/xlink" width="148.763" height="37.35" viewBox="0 0 148.763 37.35">
  <defs>
    <linearGradient id="linear-gradient" x1="-1.186" y1="-1.318" x2="0.619" y2="0.572" gradientUnits="objectBoundingBox">
      <stop offset="0" stop-color="#32a071"/>
      <stop offset="0.068" stop-color="#2da771"/>
      <stop offset="0.476" stop-color="#15cf74"/>
      <stop offset="0.801" stop-color="#06e775"/>
      <stop offset="1" stop-color="#00f076"/>
    </linearGradient>
    <linearGradient id="linear-gradient-2" x1="1.682" y1="0.495" x2="-0.093" y2="0.5" gradientUnits="objectBoundingBox">
      <stop offset="0" stop-color="#00a0ff"/>
      <stop offset="0.007" stop-color="#00a1ff"/>
      <stop offset="0.26" stop-color="#00beff"/>
      <stop offset="0.512" stop-color="#00d2ff"/>
      <stop offset="0.76" stop-color="#00dfff"/>
      <stop offset="1" stop-color="#00e3ff"/>
    </linearGradient>
    <linearGradient id="linear-gradient-3" x1="1.175" y1="0.569" x2="-0.848" y2="0.383" gradientUnits="objectBoundingBox">
      <stop offset="0" stop-color="#ffe000"/>
      <stop offset="0.409" stop-color="#ffbd00"/>
      <stop offset="0.775" stop-color="orange"/>
      <stop offset="1" stop-color="#ff9c00"/>
    </linearGradient>
    <linearGradient id="linear-gradient-4" x1="1.294" y1="-0.194" x2="-1.054" y2="1.799" gradientUnits="objectBoundingBox">
      <stop offset="0" stop-color="#ff3a44"/>
      <stop offset="1" stop-color="#c31162"/>
    </linearGradient>
  </defs>
  <g id="Сгруппировать_11423" data-name="Сгруппировать 11423" transform="translate(0)">
    <g id="Сгруппировать_11422" data-name="Сгруппировать 11422" transform="translate(0)">
      <rect id="Прямоугольник_13802" data-name="Прямоугольник 13802" width="148.763" height="37.35" rx="9" fill="#e4e4e4"/>
      <g id="Сгруппировать_11330" data-name="Сгруппировать 11330" transform="translate(57.416 10.155)">
        <path id="Контур_15647" data-name="Контур 15647" d="M3204.365,1966.047a1.807,1.807,0,0,1-.5,1.335,1.939,1.939,0,0,1-1.469.592,2.089,2.089,0,1,1,0-4.178,2.065,2.065,0,0,1,.821.167,1.655,1.655,0,0,1,.625.447l-.352.352a1.349,1.349,0,0,0-1.094-.475,1.6,1.6,0,1,0,1.117,2.748,1.26,1.26,0,0,0,.335-.81H3202.4v-.481h1.938A1.721,1.721,0,0,1,3204.365,1966.047Z" transform="translate(-3200.321 -1963.796)" fill="#333"/>
        <path id="Контур_15648" data-name="Контур 15648" d="M3276.265,1965.665h-1.822v1.268h1.642v.48h-1.642v1.268h1.822v.491h-2.335v-4h2.335Z" transform="translate(-3269.149 -1965.084)" fill="#333"/>
        <path id="Контур_15649" data-name="Контур 15649" d="M3319.757,1969.173h-.514v-3.508h-1.117v-.491h2.748v.491h-1.117Z" transform="translate(-3310.474 -1965.084)" fill="#333"/>
        <path id="Контур_15650" data-name="Контур 15650" d="M3391.054,1969.173v-4h.513v4Z" transform="translate(-3378.665 -1965.084)" fill="#333"/>
        <path id="Контур_15651" data-name="Контур 15651" d="M3410.574,1969.173h-.514v-3.508h-1.117v-.491h2.748v.491h-1.117Z" transform="translate(-3395.392 -1965.084)" fill="#333"/>
        <path id="Контур_15652" data-name="Контур 15652" d="M3480.658,1967.368a2.077,2.077,0,0,1-2.933,0,2.162,2.162,0,0,1,0-2.966,2.07,2.07,0,0,1,2.93,0,2.155,2.155,0,0,1,0,2.963Zm-2.553-.335a1.537,1.537,0,0,0,2.173,0,1.7,1.7,0,0,0,0-2.3,1.537,1.537,0,0,0-2.173,0,1.7,1.7,0,0,0,0,2.3Z" transform="translate(-3459.156 -1963.796)" fill="#333"/>
        <path id="Контур_15653" data-name="Контур 15653" d="M3551.527,1969.173v-4h.625l1.944,3.111h.022l-.022-.771v-2.341h.514v4h-.537l-2.033-3.262h-.022l.022.771v2.491Z" transform="translate(-3528.715 -1965.084)" fill="#333"/>
      </g>
      <path id="Контур_15654" data-name="Контур 15654" d="M3215.2,2071.418a2.86,2.86,0,0,0-2.023.813,2.887,2.887,0,0,0,.1,4.135,2.921,2.921,0,0,0,3.751.08,2.8,2.8,0,0,0,1.016-2.192,2.793,2.793,0,0,0-2.846-2.835Zm0,4.553a1.723,1.723,0,1,1,1.6-1.719A1.641,1.641,0,0,1,3215.2,2075.971Zm-6.208-4.553a2.9,2.9,0,0,0-1.59.464,2.874,2.874,0,0,0-.421,4.4,2.921,2.921,0,0,0,3.741.24,2.8,2.8,0,0,0,1.115-2.27,2.869,2.869,0,0,0-.385-1.459A2.82,2.82,0,0,0,3208.988,2071.418Zm0,4.553a1.723,1.723,0,1,1,1.6-1.719A1.641,1.641,0,0,1,3208.988,2075.971Zm-7.384-3.684v1.2h2.878a2.51,2.51,0,0,1-.655,1.514,2.947,2.947,0,0,1-2.223.88,3.2,3.2,0,0,1,0-6.4,3.066,3.066,0,0,1,2.169.859l.849-.848a4.2,4.2,0,0,0-3.017-1.213,4.461,4.461,0,0,0-2.275.625,4.354,4.354,0,0,0,.125,7.628,4.457,4.457,0,0,0,2.15.553,4.024,4.024,0,0,0,3.071-1.235,4.334,4.334,0,0,0,.978-3.565H3201.6Zm30.2.934a2.576,2.576,0,0,0-4.1-1.214,2.842,2.842,0,0,0-1,2.245,2.775,2.775,0,0,0,2.814,2.835,2.82,2.82,0,0,0,2.362-1.256l-.967-.645a1.619,1.619,0,0,1-1.4.784,1.442,1.442,0,0,1-1.375-.859l3.791-1.568Zm-3.865.945a1.554,1.554,0,0,1,1.481-1.654,1.1,1.1,0,0,1,1.053.6l-1.324.55Zm-3.083,2.75h1.246v-8.333h-1.246Zm-2.041-4.865h-.042a1.965,1.965,0,0,0-1.493-.634,2.652,2.652,0,0,0-1.774.711,2.884,2.884,0,0,0-.943,2.135,2.854,2.854,0,0,0,1.235,2.35,2.615,2.615,0,0,0,1.482.475,1.933,1.933,0,0,0,1.493-.645h.042v.408c0,1.085-.58,1.665-1.514,1.665a1.569,1.569,0,0,1-1.428-1.01l-1.085.451a2.7,2.7,0,0,0,2.513,1.675c1.46,0,2.7-.859,2.7-2.953v-5.09h-1.181Zm-1.428,3.92a1.724,1.724,0,0,1,0-3.437,1.732,1.732,0,0,1,0,3.437Zm16.251-7.388h-2.98v8.333h1.243v-3.157h1.737a2.848,2.848,0,0,0,2.1-.913,2.537,2.537,0,0,0,.017-3.332A2.848,2.848,0,0,0,3237.639,2068.583Zm.032,4.016H3235.9v-2.856h1.769a1.429,1.429,0,1,1,0,2.856Zm7.687-1.2a2.333,2.333,0,0,0-2.219,1.276l1.1.461a1.179,1.179,0,0,1,1.136-.611,1.2,1.2,0,0,1,1.308,1.072v.086a2.746,2.746,0,0,0-1.3-.322,3.017,3.017,0,0,0-1.45.356,1.712,1.712,0,0,0-.228,2.933,2.283,2.283,0,0,0,1.345.42,1.755,1.755,0,0,0,1.587-.815h.043v.643h1.2v-3.195a2.137,2.137,0,0,0-1-1.907A2.879,2.879,0,0,0,3245.358,2071.4Zm-.15,4.567c-.407,0-.975-.2-.975-.708,0-.643.707-.89,1.319-.89a2.211,2.211,0,0,1,1.136.279A1.508,1.508,0,0,1,3245.208,2075.969Zm7.054-4.385-.591,1.5-.835,2.117h-.043l-1.479-3.613h-1.34l1.07,2.436,1.149,2.614-1.265,2.809h1.3l2.426-5.575.994-2.283Zm-11.2,5.332h1.244v-8.333h-1.244Z" transform="translate(-3139.926 -2051.34)" fill="#333"/>
      <path id="Контур_15655" data-name="Контур 15655" d="M2889,1964.383l-9.905-5.812a1.078,1.078,0,0,0-1.415.29l8.389,8.438Z" transform="translate(-2841.218 -1948.615)" fill="url(#linear-gradient)"/>
      <path id="Контур_15656" data-name="Контур 15656" d="M2874.456,1981.387a1.066,1.066,0,0,0,.191.616l8.407-8.366-8.389-8.438a1.066,1.066,0,0,0-.209.64Z" transform="translate(-2838.206 -1954.953)" fill="url(#linear-gradient-2)"/>
      <path id="Контур_15657" data-name="Контур 15657" d="M3009.716,2056.019l3.395-1.992a1.078,1.078,0,0,0,0-1.86l-3.345-1.963-2.931,2.917Z" transform="translate(-2961.987 -2034.437)" fill="url(#linear-gradient-3)"/>
      <path id="Контур_15658" data-name="Контур 15658" d="M2877.4,2103.476a1.079,1.079,0,0,0,1.433.314l9.855-5.782-2.881-2.9Z" transform="translate(-2840.959 -2076.426)" fill="url(#linear-gradient-4)"/>
    </g>
  </g>
</svg>
