<svg id="qrCode" xmlns="http://www.w3.org/2000/svg" xmlns:xlink="http://www.w3.org/1999/xlink" width="93.494" height="92.919" viewBox="0 0 93.494 92.919">
  <defs>
    <clipPath id="clip-path">
      <rect id="Прямоугольник_13809" data-name="Прямоугольник 13809" width="93.494" height="92.919" fill="#0068e0"/>
    </clipPath>
  </defs>
  <path id="Контур_15659" data-name="Контур 15659" d="M129.577,108.076h9.609l.083,9.61h-9.692Zm12.812-9.609h3.2l-.028,6.407h-3.176ZM142.307,79.3l.082,3.176,3.176.027.028,6.379,3.175.027v6.379h-3.2l-.028-3.175-6.378-.028v-3.2l.027-.028h-3.2l-.028-6.379-6.407-.028.028,9.61,6.379.027.028,3.176,6.378.027v3.2l-9.609.027-.028,6.379h-6.406v6.406h-3.2l.027,6.406,3.176.028.028,3.175,3.176.028v3.2h-9.61v3.175l3.176.027v3.176l-3.176.027v3.176h12.9l-.083-3.176-3.176-.027V127.35l3.176-.027.028-6.379h6.406v3.2h6.406v-3.2h-3.2v-3.176h3.2v-6.406h3.2l.028,3.175h3.176l.027-3.175,3.175-.027v-3.176l-6.379-.027v-9.61l3.176-.027L152,88.912l3.175-.027V82.506l-6.379-.027-.028-3.176Z" transform="translate(-61.708 -40.81)" fill="#0068e0"/>
  <path id="Контур_15660" data-name="Контур 15660" d="M47.243,118.322l-.027-3.2h3.23V118.3h-3.2Zm22.422-6.406h3.2v3.2h-3.2Zm-6.406-3.2.082,3.2H56.88l-.027-3.176H50.474v3.2H44.068v3.2l-3.176.027v3.176l6.406.027v9.582h3.176l.027-6.379,3.176-.027.027-3.176H56.88l.028,3.176h3.175l.028-3.176H76.126v3.2l-3.175.028-.028,3.176H69.748l-.028-3.176H66.544l-.027,3.176-3.176.027v3.176l12.813.027v-3.2l3.176-.027.027-3.176h3.2V115.2h3.2V112h-3.2l-.027-3.175-9.582-.028v-6.379l3.175-.027V99.213H66.517v9.61h-3.2Z" transform="translate(-21.043 -51.056)" fill="#0068e0" fill-rule="evenodd"/>
  <path id="Контур_15661" data-name="Контур 15661" d="M57.21,6.407h0Zm12.812,6.406h3.2v3.175h-3.2V12.813ZM54.116,0l-.082,6.379,3.176.027V3.2h9.609V9.583l-3.176.027-.028,3.176h-3.2v9.61h3.2V15.988h6.407v3.2h3.2l.027,3.176,3.2.027V15.988h3.2v6.407h3.2V15.988h3.2v6.407h3.2v-3.2h3.2v3.2h3.176V16.016l-3.176-.028v-3.2H86.065v-3.2h-3.2v3.2H76.483l-.027-3.176L73.28,9.583l-.028-3.176-3.176-.028V3.2l3.176-.028V0Z" transform="translate(-27.807)" fill="#0068e0"/>
  <path id="Контур_15662" data-name="Контур 15662" d="M37.383,62.4l3.2.027v3.176h-3.2l.027,3.2h3.176v3.2H34.208l-.027,3.2H43.79l.028-3.176,3.175-.028.028-3.2,3.176.028v3.175h3.2l.027-6.378,3.176-.028.027,6.406h3.176l.027-9.609,3.176-.027V52.794h-3.2V56H56.6v3.2H53.4v3.2H50.2v3.2H47.02l-.028-3.2h-3.2V52.794H34.208v3.175L40.587,56v3.2H37.411Z" transform="translate(-17.59 -27.168)" fill="#0068e0" fill-rule="evenodd"/>
  <path id="Контур_15663" data-name="Контур 15663" d="M109.972,52.6h3.2l-.027,3.2h-3.176Zm-3.2-3.2v9.609h6.406v3.2L110,62.238l-.028,3.2h6.406v-3.2h3.176l.028,3.2h3.2v-3.2l3.175-.027.028-3.176h3.2v-3.2h3.176v3.2h3.176l.027-6.406h-6.406l-.028-3.176H125.96l-.027,3.176-3.176.027-.027,6.379h-6.406v-3.2L119.5,55.8V52.629l-3.175-.028V49.4h-3.2v-3.2h-3.2v3.2h-3.148Z" transform="translate(-54.916 -23.772)" fill="#0068e0" fill-rule="evenodd"/>
  <path id="Контур_15664" data-name="Контур 15664" d="M149.626,3.2h15.933l.082,16.015H149.626Zm-3.2,19.191h22.422V0H146.422Z" transform="translate(-75.35)" fill="#0068e0"/>
  <path id="Контур_15665" data-name="Контур 15665" d="M4.36,3.205l.027.028H20.4V19.221H4.36ZM1.184.057V22.452H23.3l.3-22.395Z" transform="translate(-0.609 -0.029)" fill="#0068e0"/>
  <g id="Сгруппировать_11430" data-name="Сгруппировать 11430">
    <g id="Сгруппировать_11429" data-name="Сгруппировать 11429" clip-path="url(#clip-path)">
      <path id="Контур_15666" data-name="Контур 15666" d="M3.778,148.442H20.095l-.3,16.015H3.751V148.469Zm-3.2,19.191H22.7l.3-22.395H.575v22.395" transform="translate(0 -74.741)" fill="#0068e0" fill-rule="evenodd"/>
      <path id="Контур_15667" data-name="Контур 15667" d="M53.978,46h3.2l.028,3.176,3.175.027v3.2h3.2l.028-3.2H66.79l.027-3.2h3.176V39.6l-3.176.027L66.79,42.8h-3.2V46H60.411l-.028-3.2H57.208l-.028-3.176-3.2-.027Z" transform="translate(-27.777 -20.376)" fill="#0068e0" fill-rule="evenodd"/>
      <path id="Контур_15668" data-name="Контур 15668" d="M66.983,168.211v3.2H60.577v3.2h6.406l.027,3.2h6.434l-.027-6.378,3.175-.028v-6.379H73.417l-.028,3.176Z" transform="translate(-31.174 -84.929)" fill="#0068e0" fill-rule="evenodd"/>
      <path id="Контур_15669" data-name="Контур 15669" d="M14.383,22.781l9.774.027-.165-9.582L14.383,13.2Z" transform="translate(-7.402 -6.792)" fill="#0068e0" fill-rule="evenodd"/>
      <path id="Контур_15670" data-name="Контур 15670" d="M14.383,167.99h9.609v-9.582l-9.609-.027Z" transform="translate(-7.402 -81.504)" fill="#0068e0" fill-rule="evenodd"/>
      <path id="Контур_15671" data-name="Контур 15671" d="M159.62,22.781l9.609.027V13.226l-9.582-.027Z" transform="translate(-82.142 -6.792)" fill="#0068e0" fill-rule="evenodd"/>
      <path id="Контур_15672" data-name="Контур 15672" d="M110.03,9.61v-3.2h3.2V3.2h9.582V0H106.827V9.583Z" transform="translate(-54.975 0)" fill="#0068e0" fill-rule="evenodd"/>
      <path id="Контур_15673" data-name="Контур 15673" d="M14.383,69.2l.027,3.2h3.176l.028,9.61h3.175V69.222l3.2-.027V66.019l-6.378-.027-.028,3.2Z" transform="translate(-7.402 -33.96)" fill="#0068e0" fill-rule="evenodd"/>
      <path id="Контур_15674" data-name="Контур 15674" d="M4.388,108.79l-3.176.027-.027,3.176h3.2v3.2l-3.176.028L1.185,121.6h3.2l.027-3.176,3.176-.028V105.614l-3.2-.027Z" transform="translate(-0.61 -54.336)" fill="#0068e0" fill-rule="evenodd"/>
      <path id="Контур_15675" data-name="Контур 15675" d="M113.426,88.992v3.2h6.379l.027,3.2h3.176l.027-9.609h-3.2l-.027,3.2Z" transform="translate(-58.371 -44.148)" fill="#0068e0" fill-rule="evenodd"/>
      <path id="Контур_15676" data-name="Контур 15676" d="M57.21,167.99l.027-3.176,6.379-.027V158.38l-3.175.027-.028,3.176-6.379.027v6.379Z" transform="translate(-27.806 -81.504)" fill="#0068e0" fill-rule="evenodd"/>
      <path id="Контур_15677" data-name="Контур 15677" d="M162.631,174.781h-6.406v-3.2l-3.2.027v6.379l3.175.028.028,3.175H159.4l.028-3.175,3.176-.028Z" transform="translate(-78.747 -88.296)" fill="#0068e0" fill-rule="evenodd"/>
      <path id="Контур_15678" data-name="Контур 15678" d="M93.629,85.6h9.609v-3.2H96.832v-3.2l-3.2.027Z" transform="translate(-48.182 -40.752)" fill="#0068e0" fill-rule="evenodd"/>
      <path id="Контур_15679" data-name="Контур 15679" d="M27.581,108.79v3.2h6.406v-3.176l3.2-.027v-3.176l-6.406-.027v3.2Z" transform="translate(-14.194 -54.336)" fill="#0068e0" fill-rule="evenodd"/>
      <path id="Контур_15680" data-name="Контур 15680" d="M109.838,164.786l-.027-6.379-3.176-.027-.028,3.2-6.378.027v3.176Z" transform="translate(-51.579 -81.504)" fill="#0068e0" fill-rule="evenodd"/>
      <path id="Контур_15681" data-name="Контур 15681" d="M24.214,125.384v3.2l-3.176.028v3.175h6.379v-6.379Z" transform="translate(-10.826 -64.524)" fill="#0068e0" fill-rule="evenodd"/>
      <rect id="Прямоугольник_13804" data-name="Прямоугольник 13804" width="3.176" height="9.609" transform="translate(39.04 48.048)" fill="#0068e0"/>
      <path id="Контур_15682" data-name="Контур 15682" d="M4.388,88.992l-3.176.027L1.185,92.2H7.591V85.817l-3.2-.027Z" transform="translate(-0.61 -44.148)" fill="#0068e0" fill-rule="evenodd"/>
      <path id="Контур_15683" data-name="Контур 15683" d="M60.413,19.605V13.2h-3.2v3.2H54.034v3.176Z" transform="translate(-27.806 -6.792)" fill="#0068e0" fill-rule="evenodd"/>
      <path id="Контур_15684" data-name="Контур 15684" d="M182.621,59.2H185.8l.027-6.379-6.406-.027v3.175l3.176.028Z" transform="translate(-92.331 -27.168)" fill="#0068e0" fill-rule="evenodd"/>
      <path id="Контур_15685" data-name="Контур 15685" d="M63.78,98.795V92.389h-3.2l.027,6.406Z" transform="translate(-31.174 -47.544)" fill="#0068e0" fill-rule="evenodd"/>
      <path id="Контур_15686" data-name="Контур 15686" d="M47.379,115.389h6.406v-3.176l-6.406-.027Z" transform="translate(-24.382 -57.732)" fill="#0068e0" fill-rule="evenodd"/>
      <path id="Контур_15687" data-name="Контур 15687" d="M4.388,59.2V52.821l-3.2-.027v6.379Z" transform="translate(-0.61 -27.168)" fill="#0068e0" fill-rule="evenodd"/>
      <path id="Контур_15688" data-name="Контур 15688" d="M179.225,69.2v-3.2h-6.406v3.176Z" transform="translate(-88.935 -33.96)" fill="#0068e0" fill-rule="evenodd"/>
      <path id="Контур_15689" data-name="Контур 15689" d="M182.621,178.177h-3.2v6.406h3.176Z" transform="translate(-92.331 -91.692)" fill="#0068e0" fill-rule="evenodd"/>
      <path id="Контур_15690" data-name="Контур 15690" d="M133.224,118.592H136.4v-6.406l-3.176.027Z" transform="translate(-68.558 -57.732)" fill="#0068e0" fill-rule="evenodd"/>
      <path id="Контур_15691" data-name="Контур 15691" d="M186.017,171.414h3.176l.027-6.379h-3.2Z" transform="translate(-95.726 -84.929)" fill="#0068e0" fill-rule="evenodd"/>
      <path id="Контур_15692" data-name="Контур 15692" d="M14.41,55.969,20.789,56V52.821l-6.406-.028Z" transform="translate(-7.402 -27.168)" fill="#0068e0" fill-rule="evenodd"/>
      <rect id="Прямоугольник_13805" data-name="Прямоугольник 13805" width="3.203" height="3.203" transform="translate(13.388 48.048)" fill="#0068e0"/>
      <rect id="Прямоугольник_13806" data-name="Прямоугольник 13806" width="3.231" height="3.203" transform="translate(42.216 44.845)" fill="#0068e0"/>
      <path id="Контур_15693" data-name="Контур 15693" d="M103.431,49.4v-3.2h-3.2V49.37Z" transform="translate(-51.579 -23.772)" fill="#0068e0" fill-rule="evenodd"/>
      <path id="Контур_15694" data-name="Контур 15694" d="M126.625,49.4H129.8l.027-3.2h-3.2Z" transform="translate(-65.162 -23.772)" fill="#0068e0" fill-rule="evenodd"/>
      <path id="Контур_15695" data-name="Контур 15695" d="M37.383,75.794v-3.2h-3.2l.027,3.2Z" transform="translate(-17.59 -37.356)" fill="#0068e0" fill-rule="evenodd"/>
      <path id="Контур_15696" data-name="Контур 15696" d="M60.577,69.2h3.2v-3.2l-3.176.027Z" transform="translate(-31.174 -33.96)" fill="#0068e0" fill-rule="evenodd"/>
      <path id="Контур_15697" data-name="Контур 15697" d="M172.819,174.781h3.2l-.027-3.176-3.176-.027Z" transform="translate(-88.934 -88.296)" fill="#0068e0" fill-rule="evenodd"/>
      <path id="Контур_15698" data-name="Контур 15698" d="M43.983,121.988v-3.2h-3.2l.027,3.2Z" transform="translate(-20.986 -61.128)" fill="#0068e0" fill-rule="evenodd"/>
      <path id="Контур_15699" data-name="Контур 15699" d="M172.819,161.583h3.176l.027-3.176-3.2-.027Z" transform="translate(-88.934 -81.504)" fill="#0068e0" fill-rule="evenodd"/>
      <path id="Контур_15700" data-name="Контур 15700" d="M24.214,121.988v-3.2l-3.176.027v3.176Z" transform="translate(-10.826 -61.128)" fill="#0068e0" fill-rule="evenodd"/>
      <rect id="Прямоугольник_13807" data-name="Прямоугольник 13807" width="3.176" height="3.203" transform="translate(10.212 51.251)" fill="#0068e0"/>
      <path id="Контур_15701" data-name="Контур 15701" d="M120.025,16.4H123.2V13.226l-3.176-.027Z" transform="translate(-61.766 -6.792)" fill="#0068e0" fill-rule="evenodd"/>
      <path id="Контур_15702" data-name="Контур 15702" d="M156.224,72.591h-3.2v3.2H156.2Z" transform="translate(-78.747 -37.356)" fill="#0068e0" fill-rule="evenodd"/>
      <path id="Контур_15703" data-name="Контур 15703" d="M100.228,75.794H103.4l.027-3.2h-3.2Z" transform="translate(-51.579 -37.356)" fill="#0068e0" fill-rule="evenodd"/>
      <path id="Контур_15704" data-name="Контур 15704" d="M10.987,69.2V66.019l-3.2-.027.027,3.176Z" transform="translate(-4.006 -33.96)" fill="#0068e0" fill-rule="evenodd"/>
      <path id="Контур_15705" data-name="Контур 15705" d="M73.775,154.984h3.2v-3.176l-3.2-.027Z" transform="translate(-37.965 -78.108)" fill="#0068e0" fill-rule="evenodd"/>
      <path id="Контур_15706" data-name="Контур 15706" d="M133.224,23H136.4V19.825l-3.176-.027Z" transform="translate(-68.558 -10.188)" fill="#0068e0" fill-rule="evenodd"/>
      <path id="Контур_15707" data-name="Контур 15707" d="M123.229,105.587l-3.2.027v3.176H123.2Z" transform="translate(-61.767 -54.336)" fill="#0068e0" fill-rule="evenodd"/>
      <path id="Контур_15708" data-name="Контур 15708" d="M57.21,184.777l-3.176.027v3.176H57.21Z" transform="translate(-27.806 -95.088)" fill="#0068e0" fill-rule="evenodd"/>
      <path id="Контур_15709" data-name="Контур 15709" d="M186.017,72.591v3.2h3.176l.027-3.176Z" transform="translate(-95.726 -37.356)" fill="#0068e0" fill-rule="evenodd"/>
      <path id="Контур_15710" data-name="Контур 15710" d="M159.62,95.592H162.8V92.416l-3.176-.027Z" transform="translate(-82.142 -47.544)" fill="#0068e0" fill-rule="evenodd"/>
      <path id="Контур_15711" data-name="Контур 15711" d="M166.22,56H169.4l.027-3.176-3.2-.027Z" transform="translate(-85.538 -27.168)" fill="#0068e0" fill-rule="evenodd"/>
      <rect id="Прямоугольник_13808" data-name="Прямоугольник 13808" width="3.176" height="3.176" transform="translate(45.446 89.716)" fill="#0068e0"/>
      <path id="Контур_15712" data-name="Контур 15712" d="M67.176,105.587l.027,3.2h3.149l.027-3.176Z" transform="translate(-34.569 -54.336)" fill="#0068e0" fill-rule="evenodd"/>
      <path id="Контур_15713" data-name="Контур 15713" d="M146.422,148.385H149.6v-3.176l-3.176-.027Z" transform="translate(-75.35 -74.712)" fill="#0068e0" fill-rule="evenodd"/>
    </g>
  </g>
</svg>
